HIERARCHY
ROOT hip
{
  OFFSET -1.62966 111.322 -0.413876
  CHANNELS 6 Xposition Yposition Zposition Zrotation Xrotation Yrotation
  JOINT abdomen
  {
    OFFSET 0 -1.186 -1.50178
    CHANNELS 6 Xposition Yposition Zposition Zrotation Xrotation Yrotation
    JOINT abdomen2
    {
      OFFSET 0 9.964 0.21338
      CHANNELS 6 Xposition Yposition Zposition Zrotation Xrotation Yrotation
      JOINT chest
      {
        OFFSET 0 13.134 -3.25729
        CHANNELS 6 Xposition Yposition Zposition Zrotation Xrotation Yrotation
        JOINT neck
        {
          OFFSET 0 21.686 -1.69049
          CHANNELS 6 Xposition Yposition Zposition Zrotation Xrotation Yrotation
          JOINT head
          {
            OFFSET 0 11.838 -0.12368
            CHANNELS 6 Xposition Yposition Zposition Zrotation Xrotation Yrotation
            End Site
            {
              OFFSET 0 6.717 2.38717
            }
          }
        }
        JOINT lCollar
        {
          OFFSET 1.70688 20.075 5.0056
          CHANNELS 6 Xposition Yposition Zposition Zrotation Xrotation Yrotation
          JOINT lShldr
          {
            OFFSET 13.6458 -0.047012 -4.84902
            CHANNELS 6 Xposition Yposition Zposition Zrotation Xrotation Yrotation
            JOINT lForeArm
            {
              OFFSET 28.3255 -0.975903 2.28883
              CHANNELS 6 Xposition Yposition Zposition Zrotation Xrotation Yrotation
              JOINT lHand
              {
                OFFSET 22.1583 -0.530035 10.8316
                CHANNELS 6 Xposition Yposition Zposition Zrotation Xrotation Yrotation
                JOINT lThumb1
                {
                  OFFSET 0.785995 0.111999 2.58168
                  CHANNELS 6 Xposition Yposition Zposition Zrotation Xrotation Yrotation
                  JOINT lThumb2
                  {
                    OFFSET 0.3601 -0.878005 4.2331
                    CHANNELS 6 Xposition Yposition Zposition Zrotation Xrotation Yrotation
                    End Site
                    {
                      OFFSET 1.81271 -1.21601 2.2227
                    }
                  }
                }
                JOINT lCarpal1
                {
                  OFFSET 0.9571 1.114 1.76948
                  CHANNELS 6 Xposition Yposition Zposition Zrotation Xrotation Yrotation
                  JOINT lIndex1
                  {
                    OFFSET 4.1246 0.487 4.1451
                    CHANNELS 6 Xposition Yposition Zposition Zrotation Xrotation Yrotation
                    JOINT lIndex2
                    {
                      OFFSET 3.40521 -1.45401 2.7682
                      CHANNELS 6 Xposition Yposition Zposition Zrotation Xrotation Yrotation
                      End Site
                      {
                        OFFSET 1.4531 -1.795 1.2713
                      }
                    }
                  }
                  JOINT lMid1
                  {
                    OFFSET 5.6954 0.209991 2.1184
                    CHANNELS 6 Xposition Yposition Zposition Zrotation Xrotation Yrotation
                    JOINT lMid2
                    {
                      OFFSET 3.9766 -1.53999 2.3863
                      CHANNELS 6 Xposition Yposition Zposition Zrotation Xrotation Yrotation
                      End Site
                      {
                        OFFSET 1.4042 -1.926 1.125
                      }
                    }
                  }
                }
                JOINT lCarpal2
                {
                  OFFSET 2.09559 0.65999 -0.38939
                  CHANNELS 6 Xposition Yposition Zposition Zrotation Xrotation Yrotation
                  JOINT lRing1
                  {
                    OFFSET 5.0395 -0.089997 2.49707
                    CHANNELS 6 Xposition Yposition Zposition Zrotation Xrotation Yrotation
                    JOINT lRing2
                    {
                      OFFSET 3.7921 -1.552 1.4806
                      CHANNELS 6 Xposition Yposition Zposition Zrotation Xrotation Yrotation
                      End Site
                      {
                        OFFSET 1.4655 -1.808 0.9609
                      }
                    }
                  }
                  JOINT lPinky1
                  {
                    OFFSET 4.9141 -1.269 0.35915
                    CHANNELS 6 Xposition Yposition Zposition Zrotation Xrotation Yrotation
                    JOINT lPinky2
                    {
                      OFFSET 3.1477 -1.685 0.84623
                      CHANNELS 6 Xposition Yposition Zposition Zrotation Xrotation Yrotation
                      End Site
                      {
                        OFFSET 0.805505 -1.58499 0.79549
                      }
                    }
                  }
                }
              }
            }
          }
        }
        JOINT rCollar
        {
          OFFSET -1.70688 20.075 5.0056
          CHANNELS 6 Xposition Yposition Zposition Zrotation Xrotation Yrotation
          JOINT rShldr
          {
            OFFSET -13.6458 -0.047012 -4.84902
            CHANNELS 6 Xposition Yposition Zposition Zrotation Xrotation Yrotation
            JOINT rForeArm
            {
              OFFSET -28.3255 -0.975903 2.28883
              CHANNELS 6 Xposition Yposition Zposition Zrotation Xrotation Yrotation
              JOINT rHand
              {
                OFFSET -22.1583 -0.530036 10.8316
                CHANNELS 6 Xposition Yposition Zposition Zrotation Xrotation Yrotation
                JOINT rThumb1
                {
                  OFFSET -0.785995 0.111999 2.58168
                  CHANNELS 6 Xposition Yposition Zposition Zrotation Xrotation Yrotation
                  JOINT rThumb2
                  {
                    OFFSET -0.3601 -0.878005 4.2331
                    CHANNELS 6 Xposition Yposition Zposition Zrotation Xrotation Yrotation
                    End Site
                    {
                      OFFSET -1.81271 -1.21601 2.2227
                    }
                  }
                }
                JOINT rCarpal1
                {
                  OFFSET -0.9571 1.114 1.76948
                  CHANNELS 6 Xposition Yposition Zposition Zrotation Xrotation Yrotation
                  JOINT rIndex1
                  {
                    OFFSET -4.1246 0.487 4.1451
                    CHANNELS 6 Xposition Yposition Zposition Zrotation Xrotation Yrotation
                    JOINT rIndex2
                    {
                      OFFSET -3.40521 -1.45401 2.7682
                      CHANNELS 6 Xposition Yposition Zposition Zrotation Xrotation Yrotation
                      End Site
                      {
                        OFFSET -1.4531 -1.795 1.2713
                      }
                    }
                  }
                  JOINT rMid1
                  {
                    OFFSET -5.6954 0.209991 2.1184
                    CHANNELS 6 Xposition Yposition Zposition Zrotation Xrotation Yrotation
                    JOINT rMid2
                    {
                      OFFSET -3.9766 -1.53999 2.3863
                      CHANNELS 6 Xposition Yposition Zposition Zrotation Xrotation Yrotation
                      End Site
                      {
                        OFFSET -1.4042 -1.926 1.125
                      }
                    }
                  }
                }
                JOINT rCarpal2
                {
                  OFFSET -2.09559 0.65999 -0.38939
                  CHANNELS 6 Xposition Yposition Zposition Zrotation Xrotation Yrotation
                  JOINT rRing1
                  {
                    OFFSET -5.0395 -0.089997 2.49707
                    CHANNELS 6 Xposition Yposition Zposition Zrotation Xrotation Yrotation
                    JOINT rRing2
                    {
                      OFFSET -3.7921 -1.552 1.4806
                      CHANNELS 6 Xposition Yposition Zposition Zrotation Xrotation Yrotation
                      End Site
                      {
                        OFFSET -1.4655 -1.808 0.9609
                      }
                    }
                  }
                  JOINT rPinky1
                  {
                    OFFSET -4.9141 -1.269 0.35915
                    CHANNELS 6 Xposition Yposition Zposition Zrotation Xrotation Yrotation
                    JOINT rPinky2
                    {
                      OFFSET -3.1477 -1.685 0.84623
                      CHANNELS 6 Xposition Yposition Zposition Zrotation Xrotation Yrotation
                      End Site
                      {
                        OFFSET -0.805505 -1.58499 0.79549
                      }
                    }
                  }
                }
              }
            }
          }
        }
      }
    }
  }
  JOINT lThigh
  {
    OFFSET 8.367 -8.2066 0.59823
    CHANNELS 6 Xposition Yposition Zposition Zrotation Xrotation Yrotation
    JOINT lShin
    {
      OFFSET 2.19232 -43.463 -0.493181
      CHANNELS 6 Xposition Yposition Zposition Zrotation Xrotation Yrotation
      JOINT lFoot
      {
        OFFSET 0.733257 -45.8593 -2.64513
        CHANNELS 6 Xposition Yposition Zposition Zrotation Xrotation Yrotation
        End Site
        {
          OFFSET 2.6618 -4.26993 12.3931
        }
      }
    }
  }
  JOINT rThigh
  {
    OFFSET -8.367 -8.2066 0.59823
    CHANNELS 6 Xposition Yposition Zposition Zrotation Xrotation Yrotation
    JOINT rShin
    {
      OFFSET -2.19233 -43.463 -0.493108
      CHANNELS 6 Xposition Yposition Zposition Zrotation Xrotation Yrotation
      JOINT rFoot
      {
        OFFSET -0.733256 -45.8593 -2.64514
        CHANNELS 6 Xposition Yposition Zposition Zrotation Xrotation Yrotation
        End Site
        {
          OFFSET -2.6618 -4.26993 12.3931
        }
      }
    }
  }
}
MOTION
Frames:	4
Frame Time:	0.0333333
-15.5478 109.386 137.777 -1.56809 -3.06573 -2.10182 5.32907e-015 -1.186 -1.50178 0.428258 1.57817 1.95103 3.55271e-015 9.964 0.21338 0.802953 3.16998 3.89244 0 13.134 -3.25729 0.802954 3.16999 3.89245 0 21.686 -1.69049 2.11085 10.4289 -1.61515 0 11.838 -0.12368 -1.30511 -6.2525 -0.607852 1.70688 20.075 5.0056 -35.6482 3.49792 -4.86532 13.6458 -0.047012 -4.84902 -41.2887 1.7704 4.53454 28.3255 -0.975903 2.28883 -3.39004 -13.4188 11.6669 22.1583 -0.530035 10.8316 -7.88168 4.29905 -3.93398 0.785995 0.111999 2.58168 -3.97569e-016 3.18055e-015 -3.18055e-015 0.3601 -0.878005 4.2331 0 1.59028e-015 -0 0.9571 1.114 1.76948 -3.97569e-016 3.18055e-015 -3.18055e-015 4.1246 0.487 4.1451 0 1.59028e-015 -0 3.40521 -1.45401 2.7682 0 1.59028e-015 -0 5.6954 0.209991 2.1184 0 1.59028e-015 -0 3.9766 -1.53999 2.3863 0 1.59028e-015 -0 2.09559 0.65999 -0.38939 -3.97569e-016 3.18055e-015 -3.18055e-015 5.0395 -0.089997 2.49707 0 1.59028e-015 -0 3.7921 -1.552 1.4806 0 1.59028e-015 -0 4.9141 -1.269 0.35915 0 1.59028e-015 -0 3.1477 -1.685 0.84623 0 1.59028e-015 -0 -1.70688 20.075 5.0056 23.2208 6.14696 17.1235 -13.6458 -0.047012 -4.84902 38.4342 16.0737 7.33633 -28.3255 -0.975903 2.28883 3.42729 -5.12172 -4.14905 -22.1583 -0.530036 10.8316 2.0694 1.13632 4.77505 -0.785995 0.111999 2.58168 -0 -3.18055e-015 -0 -0.3601 -0.878005 4.2331 -0 -6.36111e-015 -0 -0.9571 1.114 1.76948 -0 -3.18055e-015 -0 -4.1246 0.487 4.1451 -0 -6.36111e-015 -0 -3.40521 -1.45401 2.7682 0 0 -0 -5.6954 0.209991 2.1184 -0 -6.36111e-015 -0 -3.9766 -1.53999 2.3863 0 0 -0 -2.09559 0.65999 -0.38939 -0 -3.18055e-015 -0 -5.0395 -0.089997 2.49707 -0 -6.36111e-015 -0 -3.7921 -1.552 1.4806 0 0 -0 -4.9141 -1.269 0.35915 -0 -6.36111e-015 -0 -3.1477 -1.685 0.84623 0 0 -0 8.367 -8.2066 0.59823 -2.97027 -21.9109 1.25716 2.19232 -43.463 -0.493181 -2.5183 5.66125 -2.74285 0.733257 -45.8593 -2.64513 5.95865 -3.12963 0.115941 -8.367 -8.2066 0.59823 7.07731 9.75919 -9.3045 -2.19233 -43.463 -0.493108 1.21432 13.774 7.17825 -0.733256 -45.8593 -2.64514 -27.0585 -11.3756 -2.38342 
-15.4325 109.117 141.443 -1.20059 -3.03128 -2.32177 3.55271e-015 -1.186 -1.50178 0.284318 1.55332 1.99012 0 9.964 0.21338 0.514766 3.11557 3.97471 -3.55271e-015 13.134 -3.25729 0.514766 3.11557 3.97472 0 21.686 -1.69049 2.26627 10.5585 -1.59731 -3.55271e-015 11.838 -0.12368 -1.46488 -5.90049 -0.495635 1.70688 20.075 5.0056 -35.4969 3.44889 -4.77918 13.6458 -0.047012 -4.84902 -41.9162 2.37328 4.52763 28.3255 -0.975903 2.28883 -3.48191 -13.7193 12.5269 22.1583 -0.530035 10.8316 -9.12644 4.91793 -3.30516 0.785995 0.111999 2.58168 8.82781e-032 -1.59028e-015 3.18055e-015 0.3601 -0.878005 4.2331 -3.97569e-016 -1.59028e-015 3.18055e-015 0.9571 1.114 1.76948 8.82781e-032 -1.59028e-015 3.18055e-015 4.1246 0.487 4.1451 -3.97569e-016 -1.59028e-015 3.18055e-015 3.40521 -1.45401 2.7682 -3.97569e-016 -3.18055e-015 -0 5.6954 0.209991 2.1184 -3.97569e-016 -1.59028e-015 3.18055e-015 3.9766 -1.53999 2.3863 -3.97569e-016 -3.18055e-015 -0 2.09559 0.65999 -0.38939 8.82781e-032 -1.59028e-015 3.18055e-015 5.0395 -0.089997 2.49707 -3.97569e-016 -1.59028e-015 3.18055e-015 3.7921 -1.552 1.4806 -3.97569e-016 -3.18055e-015 -0 4.9141 -1.269 0.35915 -3.97569e-016 -1.59028e-015 3.18055e-015 3.1477 -1.685 0.84623 -3.97569e-016 -3.18055e-015 -0 -1.70688 20.075 5.0056 23.2503 6.12464 17.0299 -13.6458 -0.047012 -4.84902 39.2085 16.7761 7.13032 -28.3255 -0.975903 2.28883 3.33518 -4.90641 -3.86414 -22.1583 -0.530036 10.8316 1.9592 1.07322 4.62725 -0.785995 0.111999 2.58168 3.18055e-015 0 -0 -0.3601 -0.878005 4.2331 -5.56597e-015 0 -0 -0.9571 1.114 1.76948 3.18055e-015 0 -0 -4.1246 0.487 4.1451 -5.56597e-015 0 -0 -3.40521 -1.45401 2.7682 1.59028e-015 -6.36111e-015 -3.18055e-015 -5.6954 0.209991 2.1184 -5.56597e-015 0 -0 -3.9766 -1.53999 2.3863 1.59028e-015 -6.36111e-015 -3.18055e-015 -2.09559 0.65999 -0.38939 3.18055e-015 0 -0 -5.0395 -0.089997 2.49707 -5.56597e-015 0 -0 -3.7921 -1.552 1.4806 1.59028e-015 -6.36111e-015 -3.18055e-015 -4.9141 -1.269 0.35915 -5.56597e-015 0 -0 -3.1477 -1.685 0.84623 1.59028e-015 -6.36111e-015 -3.18055e-015 8.367 -8.2066 0.59823 -3.50788 -21.8322 1.22972 2.19232 -43.463 -0.493181 -2.6873 6.93805 -2.04105 0.733257 -45.8593 -2.64513 4.64879 -1.64256 0.0373828 -8.367 -8.2066 0.59823 6.83126 12.6115 -9.51539 -2.19233 -43.463 -0.493108 0.693933 12.2394 7.3683 -0.733256 -45.8593 -2.64514 -25.567 -11.6283 -2.30565 
-15.33 109.432 145.11 0.158808 -2.64588 -2.65068 -1.77636e-015 -1.186 -1.50178 -0.107434 1.49764 2.01812 3.55271e-015 9.964 0.21338 -0.267716 2.99057 4.0411 0 13.134 -3.25729 -0.267717 2.99057 4.04111 0 21.686 -1.69049 2.22769 10.8069 -1.4063 0 11.838 -0.12368 -1.33427 -5.69959 -0.331992 1.70688 20.075 5.0056 -35.9898 3.40523 -4.577 13.6458 -0.047012 -4.84902 -41.9458 2.78122 5.30609 28.3255 -0.975903 2.28883 -3.52777 -13.8517 13.2828 22.1583 -0.530035 10.8316 -8.94806 4.82815 -3.38426 0.785995 0.111999 2.58168 7.95139e-016 1.59028e-015 -0 0.3601 -0.878005 4.2331 7.95139e-016 -3.18055e-015 3.18055e-015 0.9571 1.114 1.76948 7.95139e-016 1.59028e-015 -0 4.1246 0.487 4.1451 7.95139e-016 -3.18055e-015 3.18055e-015 3.40521 -1.45401 2.7682 -3.97569e-016 0 -0 5.6954 0.209991 2.1184 7.95139e-016 -3.18055e-015 3.18055e-015 3.9766 -1.53999 2.3863 -3.97569e-016 0 -0 2.09559 0.65999 -0.38939 7.95139e-016 1.59028e-015 -0 5.0395 -0.089997 2.49707 7.95139e-016 -3.18055e-015 3.18055e-015 3.7921 -1.552 1.4806 -3.97569e-016 0 -0 4.9141 -1.269 0.35915 7.95139e-016 -3.18055e-015 3.18055e-015 3.1477 -1.685 0.84623 -3.97569e-016 0 -0 -1.70688 20.075 5.0056 23.7066 6.28502 17.2604 -13.6458 -0.047012 -4.84902 40.2491 17.0389 6.09592 -28.3255 -0.975903 2.28883 3.20067 -4.58209 -3.76368 -22.1583 -0.530036 10.8316 2.20014 1.19449 4.18161 -0.785995 0.111999 2.58168 3.97569e-015 0 7.95139e-016 -0.3601 -0.878005 4.2331 7.95139e-016 -3.18055e-015 -0 -0.9571 1.114 1.76948 3.97569e-015 0 7.95139e-016 -4.1246 0.487 4.1451 7.95139e-016 -3.18055e-015 -0 -3.40521 -1.45401 2.7682 -7.95139e-016 3.18055e-015 -7.95139e-016 -5.6954 0.209991 2.1184 7.95139e-016 -3.18055e-015 -0 -3.9766 -1.53999 2.3863 -7.95139e-016 3.18055e-015 -7.95139e-016 -2.09559 0.65999 -0.38939 3.97569e-015 0 7.95139e-016 -5.0395 -0.089997 2.49707 7.95139e-016 -3.18055e-015 -0 -3.7921 -1.552 1.4806 -7.95139e-016 3.18055e-015 -7.95139e-016 -4.9141 -1.269 0.35915 7.95139e-016 -3.18055e-015 -0 -3.1477 -1.685 0.84623 -7.95139e-016 3.18055e-015 -7.95139e-016 8.367 -8.2066 0.59823 -5.03159 -21.9889 0.69134 2.19232 -43.463 -0.493181 -2.71311 8.04734 -1.36758 0.733257 -45.8593 -2.64513 3.7937 4.41113 -0.138659 -8.367 -8.2066 0.59823 5.58828 15.5147 -9.75742 -2.19233 -43.463 -0.493108 0.362529 9.08051 7.72398 -0.733256 -45.8593 -2.64514 -24.9204 -8.99891 -1.65722 
-15.1183 109.801 149.189 1.54072 -2.75021 -3.25434 -1.77636e-015 -1.186 -1.50178 -0.516441 1.51396 2.08579 1.77636e-015 9.964 0.21338 -1.08825 3.00805 4.18733 0 13.134 -3.25729 -1.08825 3.00804 4.18732 0 21.686 -1.69049 2.58841 10.6156 -1.40953 -3.55271e-015 11.838 -0.12368 -1.54894 -5.04031 -0.150654 1.70688 20.075 5.0056 -36.2826 3.37095 -4.43928 13.6458 -0.047012 -4.84902 -41.7695 3.45023 5.84999 28.3255 -0.975903 2.28883 -3.9252 -15.4479 14.5332 22.1583 -0.530035 10.8316 -9.29392 4.95699 -2.81868 0.785995 0.111999 2.58168 -7.95139e-016 0 3.18055e-015 0.3601 -0.878005 4.2331 0 0 -3.18055e-015 0.9571 1.114 1.76948 -7.95139e-016 0 3.18055e-015 4.1246 0.487 4.1451 0 0 -3.18055e-015 3.40521 -1.45401 2.7682 7.95139e-016 3.18055e-015 -0 5.6954 0.209991 2.1184 0 0 -3.18055e-015 3.9766 -1.53999 2.3863 7.95139e-016 3.18055e-015 -0 2.09559 0.65999 -0.38939 -7.95139e-016 0 3.18055e-015 5.0395 -0.089997 2.49707 0 0 -3.18055e-015 3.7921 -1.552 1.4806 7.95139e-016 3.18055e-015 -0 4.9141 -1.269 0.35915 0 0 -3.18055e-015 3.1477 -1.685 0.84623 7.95139e-016 3.18055e-015 -0 -1.70688 20.075 5.0056 24.0154 6.34689 17.2606 -13.6458 -0.047012 -4.84902 41.9233 17.2539 5.32942 -28.3255 -0.975903 2.28883 3.16108 -3.76268 -4.80054 -22.1583 -0.530036 10.8316 2.14764 1.16604 4.14855 -0.785995 0.111999 2.58168 2.38542e-015 6.36111e-015 4.77083e-015 -0.3601 -0.878005 4.2331 3.18055e-015 3.18055e-015 -7.95139e-016 -0.9571 1.114 1.76948 2.38542e-015 6.36111e-015 4.77083e-015 -4.1246 0.487 4.1451 3.18055e-015 3.18055e-015 -7.95139e-016 -3.40521 -1.45401 2.7682 1.59028e-015 0 2.38542e-015 -5.6954 0.209991 2.1184 3.18055e-015 3.18055e-015 -7.95139e-016 -3.9766 -1.53999 2.3863 1.59028e-015 0 2.38542e-015 -2.09559 0.65999 -0.38939 2.38542e-015 6.36111e-015 4.77083e-015 -5.0395 -0.089997 2.49707 3.18055e-015 3.18055e-015 -7.95139e-016 -3.7921 -1.552 1.4806 1.59028e-015 0 2.38542e-015 -4.9141 -1.269 0.35915 3.18055e-015 3.18055e-015 -7.95139e-016 -3.1477 -1.685 0.84623 1.59028e-015 0 2.38542e-015 8.367 -8.2066 0.59823 -6.57336 -21.7919 0.509714 2.19232 -43.463 -0.493181 -2.98388 10.2424 -1.29288 0.733257 -45.8593 -2.64513 2.82152 6.27192 -0.121796 -8.367 -8.2066 0.59823 3.89116 18.0567 -10.1716 -2.19233 -43.463 -0.493108 0.0252041 7.46442 8.57525 -0.733256 -45.8593 -2.64514 -23.9486 -5.15288 -0.796541 
